HIERARCHY
ROOT Hips
{
 OFFSET 0.000000 0.000000 0.000000
 CHANNELS 6 Xposition Yposition Zposition Yrotation Xrotation Zrotation
 JOINT Chest
 {
  OFFSET 0.000000 9.585900 0.002600
  CHANNELS 3 Yrotation Xrotation Zrotation
  JOINT Chest2
  {
   OFFSET 0.000000 9.601200 -0.005300
   CHANNELS 3 Yrotation Xrotation Zrotation
   JOINT Chest3
   {
    OFFSET 0.000000 9.561800 0.000000
    CHANNELS 3 Yrotation Xrotation Zrotation
    JOINT Chest4
    {
     OFFSET 0.000000 9.552100 0.000000
     CHANNELS 3 Yrotation Xrotation Zrotation
     JOINT Neck
     {
      OFFSET 0.000000 14.453000 0.000000
      CHANNELS 3 Yrotation Xrotation Zrotation
      JOINT Head
      {
       OFFSET 0.000000 8.936500 -0.011300
       CHANNELS 3 Yrotation Xrotation Zrotation
       End Site
       {
        OFFSET 0.000000 17.073600 -0.006000
       }
      }
     }
     JOINT RightCollar
     {
      OFFSET -2.921100 9.558500 0.000000
      CHANNELS 3 Yrotation Xrotation Zrotation
      JOINT RightShoulder
      {
       OFFSET -13.519700 0.000000 0.000000
       CHANNELS 3 Yrotation Xrotation Zrotation
       JOINT RightElbow
       {
        OFFSET 0.000000 -29.696600 0.000000
        CHANNELS 3 Yrotation Xrotation Zrotation
        JOINT RightWrist
        {
         OFFSET 0.000000 -24.004700 0.000000
         CHANNELS 3 Yrotation Xrotation Zrotation
         End Site
         {
          OFFSET 0.000000 -17.728500 0.000000
         }
        }
       }
      }
     }
     JOINT LeftCollar
     {
      OFFSET 2.921100 9.558500 0.000000
      CHANNELS 3 Yrotation Xrotation Zrotation
      JOINT LeftShoulder
      {
       OFFSET 13.519700 0.000000 0.000000
       CHANNELS 3 Yrotation Xrotation Zrotation
       JOINT LeftElbow
       {
        OFFSET 0.000000 -29.696600 0.000000
        CHANNELS 3 Yrotation Xrotation Zrotation
        JOINT LeftWrist
        {
         OFFSET 0.000000 -24.004700 0.000000
         CHANNELS 3 Yrotation Xrotation Zrotation
         End Site
         {
          OFFSET 0.000000 -17.728500 0.000000
         }
        }
       }
      }
     }
    }
   }
  }
 }
 JOINT RightHip
 {
  OFFSET -7.771700 -0.012900 -0.001300
  CHANNELS 3 Yrotation Xrotation Zrotation
  JOINT RightKnee
  {
   OFFSET 0.000000 -40.869800 0.001200
   CHANNELS 3 Yrotation Xrotation Zrotation
   JOINT RightAnkle
   {
    OFFSET 0.000000 -39.717900 0.002100
    CHANNELS 3 Yrotation Xrotation Zrotation
    JOINT RightToe
    {
     OFFSET 0.000000 -4.965400 11.033500
     CHANNELS 3 Yrotation Xrotation Zrotation
     End Site
     {
      OFFSET 0.000000 -1.423100 5.872300
     }
    }
   }
  }
 }
 JOINT LeftHip
 {
  OFFSET 7.771700 -0.012900 -0.001300
  CHANNELS 3 Yrotation Xrotation Zrotation
  JOINT LeftKnee
  {
   OFFSET 0.000000 -40.869800 0.001200
   CHANNELS 3 Yrotation Xrotation Zrotation
   JOINT LeftAnkle
   {
    OFFSET 0.000000 -39.717900 0.002100
    CHANNELS 3 Yrotation Xrotation Zrotation
    JOINT LeftToe
    {
     OFFSET 0.000000 -4.965400 11.033500
     CHANNELS 3 Yrotation Xrotation Zrotation
     End Site
     {
      OFFSET 0.000000 -1.423100 5.872300
     }
    }
   }
  }
 }
}
MOTION
Frames: 9
Frame Time: 0.008333
-48.853356 50.564556 1.417943 161.368606 -7.536676 -0.025212 4.194686 8.223209 0.647777 0.216267 0.458464 -0.021163 0.375336 0.795912 -0.035759 3.662490 7.774148 -0.126115 2.838055 18.497945 0.005464 5.215537 -1.392012 -0.904897 1.908797 5.568143 0.327501 -7.505068 -11.974886 -6.787546 -56.358113 -76.083583 77.098345 -3.640348 -1.292369 -35.326230 -6.959759 1.846035 -0.586926 20.996305 -5.485903 3.855570 73.849390 -76.240616 -97.863769 5.240933 0.421700 23.045760 -1.358636 -73.035431 -1.916235 -116.077362 81.018678 -114.065138 -0.423947 -15.014102 -0.455400 -0.259607 0.890962 -0.098269 -7.975322 -76.395848 26.048843 112.200201 78.416896 109.929509 -15.624127 -22.715718 -0.638851 -0.400452 -1.067250 -0.167824
-48.854654 50.565168 1.417237 161.379091 -7.536718 -0.035732 4.196180 8.229419 0.655828 0.216274 0.458432 -0.021362 0.375565 0.796121 -0.035852 3.664018 7.774199 -0.127066 2.838068 18.496695 0.006355 5.214433 -1.394398 -0.901481 1.900244 5.561144 0.330573 -7.488217 -11.978541 -6.798066 -56.342491 -76.095368 77.108356 -3.656366 -1.294042 -35.355645 -6.954364 1.849967 -0.578171 20.982219 -5.493353 3.854081 73.821193 -76.256501 -97.822435 5.249132 0.407061 23.035160 -1.376393 -73.034931 -1.900276 -116.077708 81.014690 -114.062905 -0.429273 -15.010824 -0.454596 -0.254068 0.884478 -0.097550 -8.026130 -76.395217 26.096110 112.200223 78.420030 109.925114 -15.620342 -22.691864 -0.644325 -0.410888 -1.071218 -0.165704
-48.857546 50.565729 1.417366 161.396787 -7.529117 -0.039476 4.196625 8.232944 0.656982 0.216497 0.458738 -0.021409 0.375760 0.796384 -0.035973 3.654646 7.770671 -0.126831 2.838878 18.494935 0.006869 5.213696 -1.396290 -0.898987 1.901812 5.552926 0.328012 -7.480508 -11.979339 -6.806220 -56.349594 -76.097664 77.122848 -3.662701 -1.294590 -35.367113 -6.953535 1.845373 -0.574005 20.974398 -5.486491 3.858471 73.854714 -76.264269 -97.851494 5.250167 0.409550 23.043265 -1.383260 -73.041818 -1.903962 -116.063213 81.008281 -114.054509 -0.420883 -15.011399 -0.444896 -0.261575 0.881957 -0.105044 -8.034113 -76.399950 26.094622 112.146175 78.418596 109.862465 -15.616133 -22.677084 -0.642134 -0.387427 -1.066698 -0.161823
-48.860498 50.566129 1.419300 161.416542 -7.511031 -0.046147 4.188154 8.220151 0.660199 0.216638 0.458909 -0.021399 0.376019 0.796612 -0.035946 3.653576 7.768800 -0.127353 2.838200 18.495360 0.007944 5.211338 -1.394694 -0.895324 1.916567 5.548396 0.317218 -7.490875 -11.976438 -6.806725 -56.371984 -76.095857 77.146036 -3.643741 -1.284603 -35.347358 -6.958746 1.843535 -0.570108 20.967557 -5.475857 3.860722 73.903500 -76.267835 -97.896080 5.237369 0.415259 23.055290 -1.413284 -73.059325 -1.890016 -116.049150 81.007570 -114.045946 -0.413283 -15.009020 -0.438867 -0.271007 0.880165 -0.110029 -8.062923 -76.418801 26.108660 112.082439 78.407955 109.789227 -15.597903 -22.654300 -0.640286 -0.372726 -1.070161 -0.160400
-48.862485 50.566865 1.419021 161.421387 -7.507165 -0.051528 4.194557 8.222511 0.665471 0.216839 0.458995 -0.021382 0.376355 0.796835 -0.035980 3.656909 7.769678 -0.127205 2.836091 18.494698 0.009738 5.203803 -1.394393 -0.892557 1.909511 5.540560 0.315327 -7.490271 -11.975733 -6.810753 -56.387341 -76.093088 77.158381 -3.636416 -1.282165 -35.337699 -6.968710 1.838278 -0.565740 20.966841 -5.460148 3.872320 73.970781 -76.278418 -97.964728 5.223001 0.426404 23.079011 -1.413438 -73.062178 -1.885618 -116.027574 81.004929 -114.028970 -0.411535 -15.006706 -0.427163 -0.277726 0.879014 -0.115841 -8.064185 -76.424777 26.110833 112.076953 78.409208 109.781771 -15.577660 -22.635943 -0.646303 -0.355503 -1.068801 -0.152323
-48.865974 50.567540 1.418599 161.425183 -7.500761 -0.047307 4.199385 8.224040 0.660061 0.217071 0.459083 -0.021342 0.376695 0.797023 -0.036051 3.660518 7.768973 -0.126239 2.832934 18.494950 0.010766 5.196514 -1.393544 -0.890800 1.903459 5.532602 0.313513 -7.487973 -11.975360 -6.815853 -56.399292 -76.103231 77.184894 -3.634052 -1.277006 -35.338503 -6.970901 1.835832 -0.566175 20.957319 -5.461291 3.876475 73.938871 -76.290165 -97.924223 5.230525 0.417568 23.070777 -1.375510 -73.068842 -1.918407 -116.020476 81.005920 -114.027073 -0.415891 -15.005202 -0.415943 -0.283682 0.879531 -0.118504 -8.039005 -76.433001 26.085299 112.074583 78.408328 109.776151 -15.581287 -22.619557 -0.646672 -0.313386 -1.056285 -0.144412
-48.865503 50.568266 1.418815 161.431873 -7.497750 -0.066370 4.203296 8.228282 0.677611 0.217272 0.459313 -0.021328 0.377009 0.797420 -0.036074 3.665390 7.766498 -0.126146 2.835147 18.506995 0.009377 5.183664 -1.403290 -0.885291 1.914925 5.529285 0.304452 -7.503531 -11.975728 -6.815040 -56.381989 -76.123926 77.207212 -3.641218 -1.278208 -35.360284 -6.974856 1.835605 -0.564518 20.950014 -5.463099 3.878183 73.873817 -76.300457 -97.845176 5.227969 0.413416 23.054099 -1.385063 -73.066505 -1.899079 -115.992350 81.001909 -113.988134 -0.425616 -15.008052 -0.412362 -0.279367 0.882363 -0.116649 -8.110593 -76.434622 26.154455 112.071616 78.405062 109.766166 -15.550095 -22.617895 -0.650795 -0.336534 -1.052527 -0.143785
-48.870424 50.568916 1.417402 161.443890 -7.493140 -0.051689 4.197396 8.234697 0.661112 0.217408 0.459623 -0.021381 0.372495 0.792187 -0.035601 3.680525 7.786660 -0.127647 2.820286 18.487502 0.012012 5.181093 -1.403780 -0.884895 1.900989 5.504389 0.305440 -7.492097 -11.972969 -6.825272 -56.391148 -76.131334 77.219092 -3.647784 -1.279961 -35.369145 -6.982421 1.818199 -0.553406 20.953296 -5.455904 3.885104 73.903276 -76.289945 -97.885325 5.233186 0.426448 23.062892 -1.323411 -73.070556 -1.970244 -115.991617 80.998104 -113.990998 -0.423464 -15.018313 -0.405202 -0.283085 0.890724 -0.115451 -7.982324 -76.446728 26.029624 112.060465 78.419656 109.769880 -15.634810 -22.610846 -0.631474 -0.313455 -1.046611 -0.136457
-48.872590 50.569569 1.416486 161.452700 -7.490551 -0.052311 4.198848 8.242070 0.660878 0.217487 0.459929 -0.021456 0.366209 0.786919 -0.034210 3.687324 7.794732 -0.128662 2.812889 18.480377 0.013297 5.178322 -1.403646 -0.885377 1.893778 5.491801 0.304718 -7.482312 -11.974096 -6.833580 -56.393150 -76.134430 77.221935 -3.651545 -1.281011 -35.376046 -6.987265 1.810593 -0.549185 20.962446 -5.454810 3.890715 73.899929 -76.280519 -97.893843 5.242875 0.430639 23.064522 -1.304994 -73.072541 -1.989610 -115.996363 80.995102 -113.995900 -0.427905 -15.021287 -0.400511 -0.282192 0.891161 -0.115204 -7.972915 -76.450689 26.014052 112.061594 78.424448 109.771453 -15.647561 -22.607460 -0.625336 -0.376130 -1.041052 -0.146484
